<?xml version="1.0" encoding="UTF-8" standalone="no"?>
<svg width="15px" height="15px" viewBox="0 0 15 15" version="1.1" xmlns="http://www.w3.org/2000/svg" xmlns:xlink="http://www.w3.org/1999/xlink" xmlns:sketch="http://www.bohemiancoding.com/sketch/ns">
    <!-- Generator: Sketch 3.2.2 (9983) - http://www.bohemiancoding.com/sketch -->
    <title>Search</title>
    <desc>Created with Sketch.</desc>
    <defs></defs>
    <g id="Page-1" stroke="none" stroke-width="1" fill="none" fill-rule="evenodd" sketch:type="MSPage">
        <g id="Top-Bar" sketch:type="MSArtboardGroup" transform="translate(-2036.000000, -701.000000)" fill="#666666">
            <path d="M2045.48325,711.885961 L2048.91249,715.315207 C2049.29876,715.701476 2049.9232,715.703302 2050.31325,715.313252 C2050.7006,714.925903 2050.69681,714.294096 2050.31521,713.912491 L2046.88596,710.483246 C2047.58733,709.501192 2048,708.298788 2048,707 C2048,703.686292 2045.31371,701 2042,701 C2038.68629,701 2036,703.686292 2036,707 C2036,710.313708 2038.68629,713 2042,713 C2043.29879,713 2044.50119,712.587332 2045.48325,711.885961 L2045.48325,711.885961 Z M2038,707 C2038,704.790861 2039.79086,703 2042,703 C2044.20914,703 2046,704.790861 2046,707 C2046,709.209139 2044.20914,711 2042,711 C2039.79086,711 2038,709.209139 2038,707 Z" id="Search" sketch:type="MSShapeGroup"></path>
        </g>
    </g>
</svg>